<svg width="64" height="64" viewBox="0 0 50 50" xmlns="http://www.w3.org/2000/svg">
  <defs>
    <linearGradient id="grad1" x1="0%" y1="0%" x2="100%" y2="100%">
      <stop offset="0%" style="stop-color:#ffffff;stop-opacity:1" />
      <stop offset="50%" style="stop-color:#a78bfa;stop-opacity:1" />
      <stop offset="100%" style="stop-color:#c084fc;stop-opacity:1" />
    </linearGradient>
  </defs>
  <g transform="translate(5, 5)">
    <path d="M25 2 C15 2, 7.5 6, 7.5 12.5 L7.5 25 C7.5 30, 10 32.5, 15 34 C17.5 35, 20 37.5, 25 37.5 C30 37.5, 32.5 35, 35 34 C40 32.5, 42.5 30, 42.5 25 L42.5 12.5 C42.5 6, 35 2, 25 2 Z" 
          fill="url(#grad1)" stroke="white" stroke-width="1"/>
    <ellipse cx="17.5" cy="16" rx="4" ry="6" fill="#0f0c29"/>
    <ellipse cx="32.5" cy="16" rx="4" ry="6" fill="#0f0c29"/>
    <path d="M17.5 25 Q25 29, 32.5 25" stroke="white" stroke-width="1" fill="none" stroke-linecap="round"/>
  </g>
</svg>

